<svg width="18" height="15" viewBox="0 0 18 15" fill="none" xmlns="http://www.w3.org/2000/svg">
<path d="M17.3115 1.12028C17.2419 0.934878 17.1724 0.888534 17.0797 0.865359C16.8248 0.77266 16.4308 0.911725 16.4308 0.911725C16.4308 0.911725 1.80751 6.1724 0.973219 6.75177C0.78782 6.86764 0.741468 6.96033 0.695118 7.02985C0.556069 7.447 0.996388 7.63242 0.996388 7.63242L4.77389 8.86067C4.77389 8.86067 4.91293 8.86067 4.95928 8.86067C5.81675 8.32765 13.5803 3.4146 14.0206 3.25238C14.0902 3.25238 14.1365 3.25237 14.1365 3.29871C13.9511 3.92443 7.20724 9.92671 7.20724 9.92671C7.20724 9.92671 7.18407 9.94989 7.16089 9.99624L6.81327 13.7274C6.81327 13.7274 6.67422 14.8629 7.80979 13.7274C8.62091 12.9163 9.40885 12.2442 9.77965 11.9198C11.0774 12.8236 12.4679 13.7969 13.0705 14.3299C13.3717 14.5848 13.6267 14.6312 13.8352 14.6312C14.4146 14.6312 14.5768 13.9823 14.5768 13.9823C14.5768 13.9823 17.2419 3.25236 17.3346 1.81552C17.3346 1.67647 17.3346 1.5838 17.3346 1.4911C17.3346 1.35205 17.3346 1.21299 17.3115 1.16664V1.12028Z" fill="#4EABE7"/>
</svg>
