<svg width="18" height="13" viewBox="0 0 18 13" fill="none" xmlns="http://www.w3.org/2000/svg">
<path d="M16.9816 2.49601C16.7968 1.77539 16.224 1.22107 15.5034 1.01782C14.21 0.666747 8.99936 0.666748 8.99936 0.666748C8.99936 0.666748 3.80719 0.666747 2.49529 1.01782C1.77467 1.20259 1.22034 1.77539 1.01709 2.49601C0.66602 3.78944 0.666016 6.50562 0.666016 6.50562C0.666016 6.50562 0.66602 9.20333 1.01709 10.5152C1.20187 11.2359 1.77467 11.7902 2.49529 11.9934C3.78871 12.3445 8.99936 12.3445 8.99936 12.3445C8.99936 12.3445 14.1915 12.3445 15.5034 11.9934C16.224 11.8087 16.7784 11.2359 16.9816 10.5152C17.3327 9.22181 17.3327 6.50562 17.3327 6.50562C17.3327 6.50562 17.3327 3.80791 16.9816 2.49601ZM7.35486 9.00008V4.01117L11.6786 6.50562L7.35486 9.00008Z" fill="#E15141"/>
</svg>
